# xmcd
#
# Track frame offsets:
#  182
#  15107
#  31157
#  43832
#  52982
#  69932
#  82157
#  96257
#  109607
#  121007
#  132165
#  149105
#
# Disc length: 2158 seconds
#
# Revision: 2
# Processed by: cddbd v1.5.1PL2 Copyright (c) Steve Scherf et al.
# Submitted via: Collectorz.com Music Collector 6.9
#
DISCID=99086c0c
DTITLE=Wendy-Lee Case - Just Because I Love You
DYEAR=1900
DGENRE=Country
TTITLE0=If It's Not Love
TTITLE1=You Say You're Gentle
TTITLE2=In The Ghetto
TTITLE3=Stupid Cupid
TTITLE4=One Day At A Time
TTITLE5=Cool Water
TTITLE6=Cotton Jenny
TTITLE7=Sweet Dreams Of You
TTITLE8=You Can Take Me Out Of The Country
TTITLE9=Just Because I Love You
TTITLE10=Grandpa
TTITLE11=Travelling On
EXTD=
EXTT0=
EXTT1=
EXTT2=
EXTT3=
EXTT4=
EXTT5=
EXTT6=
EXTT7=
EXTT8=
EXTT9=
EXTT10=
EXTT11=
PLAYORDER=
